<?xml version="1.0" standalone="no"?>
<svg xmlns:xlink="http://www.w3.org/1999/xlink" id="wave" style="transform:rotate(0deg); transition: 0.3s" viewBox="0 0 1440 370" version="1.1" xmlns="http://www.w3.org/2000/svg"><defs><linearGradient id="sw-gradient-0" x1="0" x2="0" y1="1" y2="0"><stop stop-color="rgba(0, 54.182, 150.638, 1)" offset="0%"/><stop stop-color="rgba(132.9, 0, 255, 1)" offset="100%"/></linearGradient></defs><path style="transform:translate(0, 0px); opacity:1" fill="url(#sw-gradient-0)" d="M0,185L24,160.3C48,136,96,86,144,92.5C192,99,240,160,288,160.3C336,160,384,99,432,98.7C480,99,528,160,576,209.7C624,259,672,296,720,277.5C768,259,816,185,864,129.5C912,74,960,37,1008,30.8C1056,25,1104,49,1152,49.3C1200,49,1248,25,1296,12.3C1344,0,1392,0,1440,37C1488,74,1536,148,1584,191.2C1632,234,1680,247,1728,209.7C1776,173,1824,86,1872,61.7C1920,37,1968,74,2016,92.5C2064,111,2112,111,2160,117.2C2208,123,2256,136,2304,117.2C2352,99,2400,49,2448,61.7C2496,74,2544,148,2592,197.3C2640,247,2688,271,2736,259C2784,247,2832,197,2880,185C2928,173,2976,197,3024,203.5C3072,210,3120,197,3168,185C3216,173,3264,160,3312,141.8C3360,123,3408,99,3432,86.3L3456,74L3456,370L3432,370C3408,370,3360,370,3312,370C3264,370,3216,370,3168,370C3120,370,3072,370,3024,370C2976,370,2928,370,2880,370C2832,370,2784,370,2736,370C2688,370,2640,370,2592,370C2544,370,2496,370,2448,370C2400,370,2352,370,2304,370C2256,370,2208,370,2160,370C2112,370,2064,370,2016,370C1968,370,1920,370,1872,370C1824,370,1776,370,1728,370C1680,370,1632,370,1584,370C1536,370,1488,370,1440,370C1392,370,1344,370,1296,370C1248,370,1200,370,1152,370C1104,370,1056,370,1008,370C960,370,912,370,864,370C816,370,768,370,720,370C672,370,624,370,576,370C528,370,480,370,432,370C384,370,336,370,288,370C240,370,192,370,144,370C96,370,48,370,24,370L0,370Z"/></svg>