<?xml version="1.0" standalone="no"?>
<svg xmlns:xlink="http://www.w3.org/1999/xlink" id="wave" style="transform:rotate(0deg); transition: 0.3s" viewBox="0 0 1440 490" version="1.1" xmlns="http://www.w3.org/2000/svg"><defs><linearGradient id="sw-gradient-0" x1="0" x2="0" y1="1" y2="0"><stop stop-color="rgba(139.124, 0, 155.647, 1)" offset="0%"/><stop stop-color="rgba(255, 87.328, 244.396, 1)" offset="100%"/></linearGradient></defs><path style="transform:translate(0, 0px); opacity:1" fill="url(#sw-gradient-0)" d="M0,245L48,269.5C96,294,192,343,288,318.5C384,294,480,196,576,179.7C672,163,768,229,864,220.5C960,212,1056,131,1152,147C1248,163,1344,278,1440,285.8C1536,294,1632,196,1728,171.5C1824,147,1920,196,2016,228.7C2112,261,2208,278,2304,294C2400,310,2496,327,2592,277.7C2688,229,2784,114,2880,65.3C2976,16,3072,33,3168,32.7C3264,33,3360,16,3456,57.2C3552,98,3648,196,3744,245C3840,294,3936,294,4032,302.2C4128,310,4224,327,4320,326.7C4416,327,4512,310,4608,253.2C4704,196,4800,98,4896,49C4992,0,5088,0,5184,16.3C5280,33,5376,65,5472,130.7C5568,196,5664,294,5760,294C5856,294,5952,196,6048,163.3C6144,131,6240,163,6336,212.3C6432,261,6528,327,6624,367.5C6720,408,6816,425,6864,432.8L6912,441L6912,490L6864,490C6816,490,6720,490,6624,490C6528,490,6432,490,6336,490C6240,490,6144,490,6048,490C5952,490,5856,490,5760,490C5664,490,5568,490,5472,490C5376,490,5280,490,5184,490C5088,490,4992,490,4896,490C4800,490,4704,490,4608,490C4512,490,4416,490,4320,490C4224,490,4128,490,4032,490C3936,490,3840,490,3744,490C3648,490,3552,490,3456,490C3360,490,3264,490,3168,490C3072,490,2976,490,2880,490C2784,490,2688,490,2592,490C2496,490,2400,490,2304,490C2208,490,2112,490,2016,490C1920,490,1824,490,1728,490C1632,490,1536,490,1440,490C1344,490,1248,490,1152,490C1056,490,960,490,864,490C768,490,672,490,576,490C480,490,384,490,288,490C192,490,96,490,48,490L0,490Z"/></svg>