<?xml version="1.0" standalone="no"?>
<svg xmlns:xlink="http://www.w3.org/1999/xlink" id="wave" style="transform:rotate(0deg); transition: 0.3s" viewBox="0 0 1440 490" version="1.1" xmlns="http://www.w3.org/2000/svg"><defs><linearGradient id="sw-gradient-0" x1="0" x2="0" y1="1" y2="0"><stop stop-color="rgba(0, 126.276, 255, 1)" offset="0%"/><stop stop-color="rgba(59.97, 255, 241.124, 1)" offset="100%"/></linearGradient></defs><path style="transform:translate(0, 0px); opacity:1" fill="url(#sw-gradient-0)" d="M0,245L40,212.3C80,180,160,114,240,138.8C320,163,400,278,480,285.8C560,294,640,196,720,204.2C800,212,880,327,960,367.5C1040,408,1120,376,1200,326.7C1280,278,1360,212,1440,187.8C1520,163,1600,180,1680,171.5C1760,163,1840,131,1920,147C2000,163,2080,229,2160,269.5C2240,310,2320,327,2400,334.8C2480,343,2560,343,2640,334.8C2720,327,2800,310,2880,285.8C2960,261,3040,229,3120,187.8C3200,147,3280,98,3360,73.5C3440,49,3520,49,3600,106.2C3680,163,3760,278,3840,326.7C3920,376,4000,359,4080,334.8C4160,310,4240,278,4320,245C4400,212,4480,180,4560,147C4640,114,4720,82,4800,114.3C4880,147,4960,245,5040,310.3C5120,376,5200,408,5280,424.7C5360,441,5440,441,5520,441C5600,441,5680,441,5720,441L5760,441L5760,490L5720,490C5680,490,5600,490,5520,490C5440,490,5360,490,5280,490C5200,490,5120,490,5040,490C4960,490,4880,490,4800,490C4720,490,4640,490,4560,490C4480,490,4400,490,4320,490C4240,490,4160,490,4080,490C4000,490,3920,490,3840,490C3760,490,3680,490,3600,490C3520,490,3440,490,3360,490C3280,490,3200,490,3120,490C3040,490,2960,490,2880,490C2800,490,2720,490,2640,490C2560,490,2480,490,2400,490C2320,490,2240,490,2160,490C2080,490,2000,490,1920,490C1840,490,1760,490,1680,490C1600,490,1520,490,1440,490C1360,490,1280,490,1200,490C1120,490,1040,490,960,490C880,490,800,490,720,490C640,490,560,490,480,490C400,490,320,490,240,490C160,490,80,490,40,490L0,490Z"/></svg>